/* XPM */
static char * QJack_xpm[] = {
"22 22 8 1",
" 	c #0FC118",
".	c #000000",
"+	c #2A48C6",
"@	c #4861CB",
"#	c #ADAF0E",
"$	c #DFE131",
"%	c #7D8CCB",
"&	c #E0E181",
"                      ",
"  ...   .             ",
" .   .  ..            ",
" .   .  .             ",
" .  ..  .             ",
"  ....   ..           ",
"      .               ",
"                      ",
"                      ",
"                      ",
"                      ",
"                      ",
"                      ",
"                      ",
"++++++                ",
"@@@@@@###########  ## ",
"@@@@@@$$$$$$$$$$$++$$#",
"@@@@@@$$$$$$$$$$$@@$$$",
"@@@@@@$$$$$$$$$$$%%$$&",
"@@@@@@&&&&&&&&&&&  && ",
"%%%%%%                ",
"                      "};
