/* XPM */
static char * QJackClient_xpm[] = {
"22 22 9 1",
" 	c #0FC118",
".	c #000000",
"+	c #2A48C6",
"@	c #4861CB",
"#	c #ADAF0E",
"$	c #DFE131",
"%	c #9B920B",
"&	c #7D8CCB",
"*	c #E0E181",
"                      ",
"  ...   .             ",
" .   .  ..            ",
" .   .  .             ",
" .  ..  .             ",
"  ....   ..           ",
"      .               ",
"                      ",
" ... .  .   .  . .  . ",
" .   .     . . .. . ..",
" .   .  .  ... .  . . ",
" .   .  .  .   .  . . ",
" ...  .  .  .. .  .  .",
"                      ",
"++++++                ",
"@@@@@@###########  ## ",
"@@@@@@$$$$$$$$$$$%%$$#",
"@@@@@@$$$$$$$$$$$@@$$$",
"@@@@@@$$$$$$$$$$$&&$$*",
"@@@@@@***********  ** ",
"&&&&&&                ",
"                      "};
